{
  "accessors": [
    {
      "bufferView": 2,
      "componentType": 5126,
      "count": 4,
      "max": [
        167.02890014648438,
        167.02890014648438,
        0
      ],
      "min": [
        -167.02890014648438,
        -167.02890014648438,
        0
      ],
      "type": "VEC3"
    },
    {
      "bufferView": 2,
      "byteOffset": 48,
      "componentType": 5126,
      "count": 4,
      "max": [
        0,
        0,
        1
      ],
      "min": [
        0,
        0,
        1
      ],
      "type": "VEC3"
    },
    {
      "bufferView": 3,
      "componentType": 5126,
      "count": 4,
      "max": [
        1,
        2.3841863594498136e-07,
        0,
        1
      ],
      "min": [
        1,
        1.8270841906087298e-07,
        0,
        1
      ],
      "type": "VEC4"
    },
    {
      "bufferView": 1,
      "componentType": 5126,
      "count": 4,
      "max": [
        1,
        1
      ],
      "min": [
        2.9802322387695312e-08,
        2.9802322387695312e-08
      ],
      "type": "VEC2"
    },
    {
      "bufferView": 0,
      "componentType": 5125,
      "count": 6,
      "max": [
        3
      ],
      "min": [
        0
      ],
      "type": "SCALAR"
    },
    {
      "bufferView": 2,
      "byteOffset": 96,
      "componentType": 5126,
      "count": 15897,
      "max": [
        55.931922912597656,
        8.8054924011230469,
        40.609222412109375
      ],
      "min": [
        -57.650978088378906,
        -52.431617736816406,
        -57.295196533203125
      ],
      "type": "VEC3"
    },
    {
      "bufferView": 2,
      "byteOffset": 190860,
      "componentType": 5126,
      "count": 15897,
      "max": [
        0.99999743700027466,
        0.99999964237213135,
        0.99999845027923584
      ],
      "min": [
        -0.99999773502349854,
        -0.99997413158416748,
        -0.9999992847442627
      ],
      "type": "VEC3"
    },
    {
      "bufferView": 3,
      "byteOffset": 64,
      "componentType": 5126,
      "count": 15897,
      "max": [
        0.9999997615814209,
        0.99965423345565796,
        0.9999699592590332,
        1
      ],
      "min": [
        -0.99984103441238403,
        -0.99984681606292725,
        -0.9999968409538269,
        1
      ],
      "type": "VEC4"
    },
    {
      "bufferView": 1,
      "byteOffset": 32,
      "componentType": 5126,
      "count": 15897,
      "max": [
        5.987999439239502,
        5.9714822769165039
      ],
      "min": [
        0.012000000104308128,
        0.012000000104308128
      ],
      "type": "VEC2"
    },
    {
      "bufferView": 1,
      "byteOffset": 127208,
      "componentType": 5126,
      "count": 15897,
      "max": [
        0.98711907863616943,
        0.98215389251708984
      ],
      "min": [
        0.00050000002374872565,
        0.00050000002374872565
      ],
      "type": "VEC2"
    },
    {
      "bufferView": 1,
      "byteOffset": 254384,
      "componentType": 5126,
      "count": 15897,
      "max": [
        0.98711907863616943,
        0.98215389251708984
      ],
      "min": [
        0.00050000002374872565,
        0.00050000002374872565
      ],
      "type": "VEC2"
    },
    {
      "bufferView": 0,
      "byteOffset": 24,
      "componentType": 5125,
      "count": 89352,
      "max": [
        15896
      ],
      "min": [
        0
      ],
      "type": "SCALAR"
    },
    {
      "bufferView": 2,
      "byteOffset": 381624,
      "componentType": 5126,
      "count": 1610,
      "max": [
        38.059169769287109,
        -44.879325866699219,
        37.737575531005859
      ],
      "min": [
        -39.778236389160156,
        -79.293510437011719,
        -30.470769882202148
      ],
      "type": "VEC3"
    },
    {
      "bufferView": 2,
      "byteOffset": 400944,
      "componentType": 5126,
      "count": 1610,
      "max": [
        0.99517613649368286,
        1,
        0.99881893396377563
      ],
      "min": [
        -0.99466699361801147,
        -1,
        -0.99881887435913086
      ],
      "type": "VEC3"
    },
    {
      "bufferView": 3,
      "byteOffset": 254416,
      "componentType": 5126,
      "count": 1610,
      "max": [
        1,
        0.70024174451828003,
        0.99994325637817383,
        1
      ],
      "min": [
        -1,
        -0.99540579319000244,
        -0.99995023012161255,
        -1
      ],
      "type": "VEC4"
    },
    {
      "bufferView": 1,
      "byteOffset": 381560,
      "componentType": 5126,
      "count": 1610,
      "max": [
        0.91999995708465576,
        0.65961027145385742
      ],
      "min": [
        -0.64113211631774902,
        -0.37322789430618286
      ],
      "type": "VEC2"
    },
    {
      "bufferView": 1,
      "byteOffset": 394440,
      "componentType": 5126,
      "count": 1610,
      "max": [
        0.99949997663497925,
        0.99223756790161133
      ],
      "min": [
        0.0055097495205700397,
        0.00050000002374872565
      ],
      "type": "VEC2"
    },
    {
      "bufferView": 1,
      "byteOffset": 407320,
      "componentType": 5126,
      "count": 1610,
      "max": [
        0.99949997663497925,
        0.99223756790161133
      ],
      "min": [
        0.0055097495205700397,
        0.00050000002374872565
      ],
      "type": "VEC2"
    },
    {
      "bufferView": 0,
      "byteOffset": 357432,
      "componentType": 5125,
      "count": 5760,
      "max": [
        1609
      ],
      "min": [
        0
      ],
      "type": "SCALAR"
    }
  ],
  "asset": {
    "extras": {
      "author": "MADE.COM (https://sketchfab.com/made-it)",
      "license": "CC-BY-NC-4.0 (http://creativecommons.org/licenses/by-nc/4.0/)",
      "source": "https://sketchfab.com/3d-models/kolton-chair-yolk-yellow-b47e2c087df24e9896c02b138fba3f4d",
      "title": "Kolton Chair, Yolk Yellow"
    },
    "generator": "Sketchfab-5.11.0",
    "version": "2.0"
  },
  "bufferViews": [
    {
      "buffer": 0,
      "byteLength": 380472,
      "byteOffset": 0,
      "name": "floatBufferViews",
      "target": 34963
    },
    {
      "buffer": 0,
      "byteLength": 420200,
      "byteOffset": 380472,
      "byteStride": 8,
      "name": "floatBufferViews",
      "target": 34962
    },
    {
      "buffer": 0,
      "byteLength": 420264,
      "byteOffset": 800672,
      "byteStride": 12,
      "name": "floatBufferViews",
      "target": 34962
    },
    {
      "buffer": 0,
      "byteLength": 280176,
      "byteOffset": 1220936,
      "byteStride": 16,
      "name": "floatBufferViews",
      "target": 34962
    }
  ],
  "buffers": [
    {
      "byteLength": 1501112,
      "uri": "yellowChair.bin"
    }
  ],
  "images": [
    {
      "uri": "texturesYellow/FLOOR_baseColor.png"
    },
    {
      "uri": "texturesYellow/WOOD_baseColor.jpeg"
    },
    {
      "uri": "texturesYellow/WOOD_metallicRoughness.png"
    },
    {
      "uri": "texturesYellow/FABRIC_normal.png"
    },
    {
      "uri": "texturesYellow/FABRIC_baseColor.jpeg"
    },
    {
      "uri": "texturesYellow/FABRIC_metallicRoughness.png"
    }
  ],
  "materials": [
    {
      "alphaMode": "BLEND",
      "doubleSided": true,
      "emissiveFactor": [
        0,
        0,
        0
      ],
      "name": "FLOOR",
      "pbrMetallicRoughness": {
        "baseColorFactor": [
          0,
          0,
          0,
          0.84317835370000005
        ],
        "baseColorTexture": {
          "index": 0,
          "texCoord": 0
        },
        "metallicFactor": 0,
        "roughnessFactor": 1
      }
    },
    {
      "doubleSided": true,
      "emissiveFactor": [
        0,
        0,
        0
      ],
      "name": "FABRIC",
      "normalTexture": {
        "index": 3,
        "scale": 1,
        "texCoord": 0
      },
      "occlusionTexture": {
        "index": 5,
        "strength": 0.2822027439,
        "texCoord": 1
      },
      "pbrMetallicRoughness": {
        "baseColorFactor": [
          1,
          1,
          1,
          1
        ],
        "baseColorTexture": {
          "index": 4,
          "texCoord": 0
        },
        "metallicFactor": 0,
        "roughnessFactor": 1
      }
    },
    {
      "doubleSided": true,
      "emissiveFactor": [
        0,
        0,
        0
      ],
      "name": "WOOD",
      "occlusionTexture": {
        "index": 2,
        "strength": 1,
        "texCoord": 1
      },
      "pbrMetallicRoughness": {
        "baseColorFactor": [
          1,
          1,
          1,
          1
        ],
        "baseColorTexture": {
          "index": 1,
          "texCoord": 0
        },
        "metallicFactor": 0,
        "roughnessFactor": 0.53830030490000003
      }
    }
  ],
  "meshes": [
    {
      "name": "Plane001_FLOOR_0",
      "primitives": [
        {
          "attributes": {
            "NORMAL": 1,
            "POSITION": 0,
            "TANGENT": 2,
            "TEXCOORD_0": 3
          },
          "indices": 4,
          "material": 0,
          "mode": 4
        }
      ]
    },
    {
      "name": "Kolton_Chair_FABRIC_0",
      "primitives": [
        {
          "attributes": {
            "NORMAL": 6,
            "POSITION": 5,
            "TANGENT": 7,
            "TEXCOORD_0": 8,
            "TEXCOORD_1": 9,
            "TEXCOORD_2": 10
          },
          "indices": 11,
          "material": 1,
          "mode": 4
        }
      ]
    },
    {
      "name": "Kolton_Chair_WOOD_0",
      "primitives": [
        {
          "attributes": {
            "NORMAL": 13,
            "POSITION": 12,
            "TANGENT": 14,
            "TEXCOORD_0": 15,
            "TEXCOORD_1": 16,
            "TEXCOORD_2": 17
          },
          "indices": 18,
          "material": 2,
          "mode": 4
        }
      ]
    }
  ],
  "nodes": [
    {
      "children": [
        1
      ],
      "name": "RootNode (gltf orientation matrix)",
      "rotation": [
        -0.70710678118654746,
        -0,
        -0,
        0.70710678118654757
      ]
    },
    {
      "children": [
        2
      ],
      "name": "RootNode (model correction matrix)"
    },
    {
      "children": [
        3
      ],
      "matrix": [
        1,
        0,
        0,
        0,
        0,
        0,
        1,
        0,
        0,
        -1,
        0,
        0,
        0,
        0,
        0,
        1
      ],
      "name": "0ad15bc406fe4360af5ae235dc0e5df3.fbx"
    },
    {
      "children": [
        4,
        6
      ],
      "name": "RootNode"
    },
    {
      "children": [
        5
      ],
      "matrix": [
        1,
        0,
        0,
        0,
        0,
        2.2204460492503131e-16,
        -1,
        0,
        0,
        1,
        2.2204460492503131e-16,
        0,
        0,
        0,
        0,
        1
      ],
      "name": "Plane001"
    },
    {
      "mesh": 0,
      "name": "Plane001_FLOOR_0"
    },
    {
      "children": [
        7
      ],
      "matrix": [
        1,
        0,
        0,
        0,
        0,
        0.99999999999998668,
        1.6292068494294582e-07,
        0,
        0,
        -1.6292068494294582e-07,
        0.99999999999998668,
        0,
        3.0517578125e-05,
        0,
        0,
        1
      ],
      "name": "Kolton_Chair"
    },
    {
      "children": [
        8,
        9
      ],
      "matrix": [
        1,
        0,
        -0,
        0,
        0,
        1,
        0,
        0,
        0,
        0,
        1,
        0,
        0.859527587890625,
        79.241073608398438,
        8.3429803848266602,
        1
      ],
      "name": ""
    },
    {
      "mesh": 1,
      "name": "Kolton_Chair_FABRIC_0"
    },
    {
      "mesh": 2,
      "name": "Kolton_Chair_WOOD_0"
    }
  ],
  "samplers": [
    {
      "magFilter": 9729,
      "minFilter": 9987,
      "wrapS": 10497,
      "wrapT": 10497
    }
  ],
  "scene": 0,
  "scenes": [
    {
      "name": "OSG_Scene",
      "nodes": [
        0
      ]
    }
  ],
  "textures": [
    {
      "sampler": 0,
      "source": 0
    },
    {
      "sampler": 0,
      "source": 1
    },
    {
      "sampler": 0,
      "source": 2
    },
    {
      "sampler": 0,
      "source": 3
    },
    {
      "sampler": 0,
      "source": 4
    },
    {
      "sampler": 0,
      "source": 5
    }
  ]
}

